<?xml version="1.0" standalone="no"?>
<!DOCTYPE svg PUBLIC "-//W3C//DTD SVG 20010904//EN"
 "http://www.w3.org/TR/2001/REC-SVG-20010904/DTD/svg10.dtd">
<svg version="1.0" xmlns="http://www.w3.org/2000/svg"
 width="185.000000pt" height="185.000000pt" viewBox="0 0 185.000000 185.000000"
 preserveAspectRatio="xMidYMid meet">
<metadata>
Created by potrace 1.16, written by Peter Selinger 2001-2019
</metadata>
<g transform="translate(0.000000,185.000000) scale(0.100000,-0.100000)"
fill="#000000" stroke="none">
<path d="M850 1777 c-83 -44 -80 -19 -80 -631 l0 -540 -168 166 c-103 102
-179 169 -195 174 -45 11 -131 -1 -160 -22 -34 -24 -67 -90 -67 -134 0 -71 33
-111 348 -421 169 -166 321 -308 339 -315 44 -19 92 -17 134 4 19 9 170 152
336 316 310 305 343 346 343 416 0 44 -33 110 -67 134 -29 21 -115 33 -159 22
-17 -5 -92 -70 -191 -168 l-162 -161 -3 529 c-3 513 -4 530 -24 569 -24 47
-89 85 -144 85 -20 0 -56 -10 -80 -23z"/>
</g>
</svg>
